<?xml version="1.0" encoding="utf-8"?>
<!-- Generator: Adobe Illustrator 16.0.0, SVG Export Plug-In . SVG Version: 6.00 Build 0)  -->
<!DOCTYPE svg PUBLIC "-//W3C//DTD SVG 1.1//EN" "http://www.w3.org/Graphics/SVG/1.1/DTD/svg11.dtd">
<svg version="1.1" id="Layer_1" xmlns="http://www.w3.org/2000/svg" xmlns:xlink="http://www.w3.org/1999/xlink" x="0px" y="0px"
	 width="178.109px" height="108.955px" viewBox="0 0 178.109 108.955" enable-background="new 0 0 178.109 108.955"
	 xml:space="preserve">
<g>
	<path fill="none" stroke="#184592" stroke-width="1.5086" stroke-miterlimit="10" d="M13.416,45.917v51.205l68.322-0.142
		l0.142-5.849h24.532v15.119h65.896c1.998,0,3.709-1.854,3.709-3.994V6.551c0-2.282-1.711-3.993-3.709-3.993H60.342v7.416H17.695
		c-2.282,0-4.279,1.569-4.279,3.852v7.845"/>
	<circle fill="none" stroke="#FFCD06" stroke-width="1.5086" stroke-miterlimit="10" cx="114.115" cy="28.374" r="2.996"/>
	<path fill="none" stroke="#184592" stroke-width="1.5086" stroke-miterlimit="10" d="M85.16,84.856
		c-0.143,0-0.285-0.144-0.285-0.428v-8.415c0-0.286,0.143-0.428,0.285-0.428h7.418c0.143,0,0.284,0.142,0.284,0.428v8.415
		c0,0.284-0.142,0.428-0.284,0.428H85.16z"/>
	<path fill="none" stroke="#184592" stroke-width="1.5086" stroke-miterlimit="10" d="M34.954,61.893
		c0,0.143-0.143,0.285-0.429,0.285h-8.414c-0.285,0-0.429-0.143-0.429-0.285v-7.418c0-0.142,0.144-0.285,0.429-0.285h8.414
		c0.286,0,0.429,0.144,0.429,0.285V61.893z"/>
	<path fill="none" stroke="#184592" stroke-width="1.5086" stroke-miterlimit="10" d="M34.954,77.439
		c0,0.142-0.143,0.285-0.429,0.285h-8.414c-0.285,0-0.429-0.144-0.429-0.285v-7.417c0-0.143,0.144-0.285,0.429-0.285h8.414
		c0.286,0,0.429,0.143,0.429,0.285V77.439z"/>
	<path fill="none" stroke="#184592" stroke-width="1.5086" stroke-miterlimit="10" d="M42.513,63.462
		c-0.143,0-0.285-0.144-0.285-0.429v-9.842c0-0.284,0.143-0.428,0.285-0.428h17.4c0.143,0,0.286,0.144,0.286,0.428v9.842
		c0,0.285-0.144,0.429-0.286,0.429H42.513z"/>
	<path fill="none" stroke="#184592" stroke-width="1.5086" stroke-miterlimit="10" d="M42.513,79.15
		c-0.143,0-0.285-0.142-0.285-0.428v-9.841c0-0.286,0.143-0.429,0.285-0.429h17.4c0.143,0,0.286,0.143,0.286,0.429v9.841
		c0,0.286-0.144,0.428-0.286,0.428H42.513z"/>
	<circle fill="none" stroke="#FFCD06" stroke-width="1.5086" stroke-miterlimit="10" cx="155.478" cy="28.374" r="2.996"/>
	<g>
		<circle fill="none" stroke="#FFCD06" stroke-width="1.5086" stroke-miterlimit="10" cx="165.462" cy="11.971" r="2.996"/>
		<circle fill="none" stroke="#FFCD06" stroke-width="1.5086" stroke-miterlimit="10" cx="69.329" cy="11.971" r="2.996"/>
	</g>
	<circle fill="none" stroke="#FFCD06" stroke-width="1.5086" stroke-miterlimit="10" cx="101.707" cy="83.145" r="2.996"/>
	<circle fill="none" stroke="#FFCD06" stroke-width="1.5086" stroke-miterlimit="10" cx="156.762" cy="75.87" r="2.995"/>
	<g>
		<g>
			<path fill="none" stroke="#184592" stroke-width="1.5086" stroke-miterlimit="10" d="M151.912,61.893
				c0,1.711-1.283,2.995-2.994,2.995h-25.389c-1.713,0-2.996-1.284-2.996-2.995V37.645c0-1.711,1.283-2.995,2.996-2.995h25.389
				c1.711,0,2.994,1.284,2.994,2.995V61.893z"/>
		</g>
		<g>
			<path fill="none" stroke="#FFCD06" stroke-width="1.5086" stroke-miterlimit="10" d="M146.777,58.469
				c0,0.855-0.713,1.569-1.568,1.569h-17.973c-0.855,0-1.568-0.714-1.568-1.569v-17.4c0-0.856,0.713-1.569,1.568-1.569h17.973
				c0.855,0,1.568,0.713,1.568,1.569V58.469L146.777,58.469z"/>
		</g>
		<path fill="#FFCD06" d="M130.517,52.479L130.517,52.479c-0.143,0-0.143-0.143-0.143-0.143v-3.138c0-0.144,0-0.144,0.143-0.144
			h0.143l0,0l2.853,1.57c0.144,0,0.144,0.142,0.144,0.142c0,0.144,0,0.144-0.144,0.144L130.517,52.479L130.517,52.479z"/>
		<g>
			<path fill="#184593" d="M130.802,52.907c0,0-0.143,0-0.143,0.142v1.569h1.427c0.285,0,0.713-0.285,0.713-0.714v-1.996
				L130.802,52.907z"/>
			<path fill="#184593" d="M140.359,44.634c-0.285,0-0.713,0.285-0.713,0.713v6.133l-6.99-6.703h-1.282
				c-0.286,0-0.714,0.285-0.714,0.714v2.852c0.143,0,0.143,0,0.143,0.143l1.854,0.998v-1.568l7.133,6.704l0,0c0,0,0.57,0,1.141,0
				c0.285,0,0.713-0.285,0.713-0.714v-9.271H140.359z"/>
		</g>
	</g>
	<g>
		<path fill="none" stroke="#FFCD06" stroke-width="1.5086" stroke-miterlimit="10" d="M84.732,43.064
			c0,1.142-0.855,1.997-1.996,1.997H5.144c-1.142,0-1.998-0.855-1.998-1.997V24.665c0-1.141,0.856-1.997,1.998-1.997h77.592
			c1.141,0,1.996,0.856,1.996,1.997V43.064z"/>
	</g>
	<path fill="none" stroke="#184592" stroke-width="1.5086" stroke-miterlimit="10" d="M78.457,16.393
		c-0.143,0-0.285-0.144-0.285-0.428V8.119c0-0.284,0.143-0.428,0.285-0.428h78.02c0.143,0,0.286,0.144,0.286,0.428v7.846
		c0,0.284-0.144,0.428-0.286,0.428H78.457z"/>
	<path fill="none" stroke="#184592" stroke-width="1.5086" stroke-miterlimit="10" d="M111.405,101.401
		c-0.144,0-0.286-0.143-0.286-0.428v-7.845c0-0.286,0.143-0.428,0.286-0.428h59.478c0.143,0,0.285,0.142,0.285,0.428v7.845
		c0,0.285-0.143,0.428-0.285,0.428H111.405z"/>
	<circle fill="none" stroke="#184592" stroke-width="1.5086" stroke-miterlimit="10" cx="102.705" cy="65.031" r="5.848"/>
</g>
</svg>
